<mxfile host="app.diagrams.net" modified="2022-06-07T13:55:32.787Z" agent="5.0 (Windows)" etag="brqUB7ef2XDZhzhBE58w" version="19.0.0" type="github">
  <diagram id="slHnJ4RoC0adQhZjdGyo" name="Pagina-1">
    <mxGraphModel dx="939" dy="537" grid="1" gridSize="10" guides="1" tooltips="1" connect="1" arrows="1" fold="1" page="1" pageScale="1" pageWidth="1169" pageHeight="827" math="1" shadow="0">
      <root>
        <mxCell id="0" />
        <mxCell id="1" parent="0" />
        <mxCell id="GKCKslpy26udIbWONHnp-8" style="rounded=0;orthogonalLoop=1;jettySize=auto;html=1;entryX=0;entryY=0.5;entryDx=0;entryDy=0;fontSize=23;fontColor=#FFFFFF;exitX=1;exitY=0.5;exitDx=0;exitDy=0;" parent="1" source="GKCKslpy26udIbWONHnp-1" target="GKCKslpy26udIbWONHnp-6" edge="1">
          <mxGeometry relative="1" as="geometry" />
        </mxCell>
        <mxCell id="GKCKslpy26udIbWONHnp-12" style="edgeStyle=orthogonalEdgeStyle;rounded=0;orthogonalLoop=1;jettySize=auto;html=1;entryX=0.5;entryY=0;entryDx=0;entryDy=0;fontSize=15;fontColor=#000000;" parent="1" source="GKCKslpy26udIbWONHnp-1" target="GKCKslpy26udIbWONHnp-9" edge="1">
          <mxGeometry relative="1" as="geometry">
            <Array as="points">
              <mxPoint x="599" y="170" />
              <mxPoint x="419" y="170" />
            </Array>
          </mxGeometry>
        </mxCell>
        <mxCell id="GKCKslpy26udIbWONHnp-13" style="edgeStyle=orthogonalEdgeStyle;rounded=0;orthogonalLoop=1;jettySize=auto;html=1;entryX=0.5;entryY=0;entryDx=0;entryDy=0;fontSize=15;fontColor=#000000;" parent="1" source="GKCKslpy26udIbWONHnp-1" target="GKCKslpy26udIbWONHnp-10" edge="1">
          <mxGeometry relative="1" as="geometry">
            <Array as="points">
              <mxPoint x="599" y="170" />
              <mxPoint x="899" y="170" />
            </Array>
          </mxGeometry>
        </mxCell>
        <mxCell id="GKCKslpy26udIbWONHnp-1" value="&lt;b&gt;TRANSISTORI&lt;/b&gt;" style="whiteSpace=wrap;html=1;fontSize=23;fillColor=#0000CC;fontColor=#FFFFFF;" parent="1" vertex="1">
          <mxGeometry x="509" y="90" width="180" height="60" as="geometry" />
        </mxCell>
        <mxCell id="GKCKslpy26udIbWONHnp-4" value="&lt;b&gt;&lt;span class=&quot;mw-redirect&quot;&gt;©&lt;/span&gt;&lt;/b&gt; BCPTe" style="whiteSpace=wrap;html=1;shape=partialRectangle;top=0;left=0;bottom=1;right=0;points=[[0,1],[1,1]];fillColor=none;align=center;verticalAlign=bottom;routingCenterY=0.5;snapToPoint=1;recursiveResize=0;autosize=1;treeFolding=1;treeMoving=1;newEdgeStyle={&quot;edgeStyle&quot;:&quot;entityRelationEdgeStyle&quot;,&quot;startArrow&quot;:&quot;none&quot;,&quot;endArrow&quot;:&quot;none&quot;,&quot;segment&quot;:10,&quot;curved&quot;:1};" parent="1" vertex="1">
          <mxGeometry x="40" width="80" height="20" as="geometry" />
        </mxCell>
        <mxCell id="GKCKslpy26udIbWONHnp-5" value="" style="edgeStyle=entityRelationEdgeStyle;startArrow=none;endArrow=none;segment=10;curved=1;rounded=0;" parent="1" target="GKCKslpy26udIbWONHnp-4" edge="1">
          <mxGeometry relative="1" as="geometry">
            <mxPoint y="40" as="sourcePoint" />
          </mxGeometry>
        </mxCell>
        <mxCell id="GKCKslpy26udIbWONHnp-6" value="&lt;div style=&quot;&quot; align=&quot;left&quot;&gt;&lt;font style=&quot;font-size: 12px;&quot;&gt;è un dispositivo elettronico con:&lt;br&gt;&lt;/font&gt;&lt;/div&gt;&lt;font style=&quot;font-size: 12px;&quot;&gt;- più di 2 terminali (multipolo)&lt;br&gt;- relazione \(v-i\) non-lineare&lt;/font&gt;" style="whiteSpace=wrap;html=1;strokeColor=#666666;fillColor=#f5f5f5;align=left;fontColor=#333333;" parent="1" vertex="1">
          <mxGeometry x="769" y="60" width="190" height="50" as="geometry" />
        </mxCell>
        <mxCell id="GKCKslpy26udIbWONHnp-16" style="edgeStyle=orthogonalEdgeStyle;rounded=0;orthogonalLoop=1;jettySize=auto;html=1;entryX=0.5;entryY=0;entryDx=0;entryDy=0;fontSize=15;fontColor=#000000;endArrow=none;endFill=0;" parent="1" source="GKCKslpy26udIbWONHnp-9" target="GKCKslpy26udIbWONHnp-14" edge="1">
          <mxGeometry relative="1" as="geometry">
            <Array as="points">
              <mxPoint x="419" y="240" />
              <mxPoint x="299" y="240" />
            </Array>
          </mxGeometry>
        </mxCell>
        <mxCell id="GKCKslpy26udIbWONHnp-17" style="edgeStyle=orthogonalEdgeStyle;rounded=0;orthogonalLoop=1;jettySize=auto;html=1;entryX=0.5;entryY=0;entryDx=0;entryDy=0;fontSize=15;fontColor=#000000;endArrow=none;endFill=0;" parent="1" source="GKCKslpy26udIbWONHnp-9" target="GKCKslpy26udIbWONHnp-15" edge="1">
          <mxGeometry relative="1" as="geometry">
            <Array as="points">
              <mxPoint x="419" y="240" />
              <mxPoint x="539" y="240" />
            </Array>
          </mxGeometry>
        </mxCell>
        <mxCell id="Byet9GKhUcZKY6ZSXrdh-2" style="rounded=0;orthogonalLoop=1;jettySize=auto;html=1;entryX=0.5;entryY=1;entryDx=0;entryDy=0;exitX=0;exitY=0.5;exitDx=0;exitDy=0;" edge="1" parent="1" source="GKCKslpy26udIbWONHnp-9" target="Byet9GKhUcZKY6ZSXrdh-1">
          <mxGeometry relative="1" as="geometry" />
        </mxCell>
        <mxCell id="GKCKslpy26udIbWONHnp-9" value="&lt;font style=&quot;font-size: 15px;&quot;&gt;MOSFET (MOS)&lt;br style=&quot;font-size: 15px;&quot;&gt;&lt;/font&gt;" style="whiteSpace=wrap;html=1;fontSize=15;fontColor=#000000;fillColor=#66FF66;strokeColor=#2D7600;verticalAlign=middle;align=center;" parent="1" vertex="1">
          <mxGeometry x="359" y="190" width="120" height="30" as="geometry" />
        </mxCell>
        <mxCell id="GKCKslpy26udIbWONHnp-10" value="BJT" style="whiteSpace=wrap;html=1;fontSize=15;fontColor=#000000;fillColor=#66FF66;strokeColor=#2D7600;" parent="1" vertex="1">
          <mxGeometry x="839" y="190" width="120" height="30" as="geometry" />
        </mxCell>
        <mxCell id="GKCKslpy26udIbWONHnp-14" value="nMOS" style="whiteSpace=wrap;html=1;fontSize=15;fontColor=#000000;strokeColor=#2D7600;fillColor=#66FF66;" parent="1" vertex="1">
          <mxGeometry x="249" y="260" width="100" height="20" as="geometry" />
        </mxCell>
        <mxCell id="GKCKslpy26udIbWONHnp-15" value="&lt;div&gt;pMOS&lt;/div&gt;" style="whiteSpace=wrap;html=1;fontSize=15;fontColor=#000000;strokeColor=#2D7600;fillColor=#66FF66;" parent="1" vertex="1">
          <mxGeometry x="489" y="260" width="100" height="20" as="geometry" />
        </mxCell>
        <mxCell id="Byet9GKhUcZKY6ZSXrdh-12" style="edgeStyle=none;rounded=0;orthogonalLoop=1;jettySize=auto;html=1;fontSize=11;" edge="1" parent="1" source="xVxi0OHTIi938xalqr-v-1">
          <mxGeometry relative="1" as="geometry">
            <mxPoint x="420" y="450" as="targetPoint" />
          </mxGeometry>
        </mxCell>
        <mxCell id="xVxi0OHTIi938xalqr-v-1" value="" style="shape=image;verticalLabelPosition=bottom;labelBackgroundColor=default;verticalAlign=middle;aspect=fixed;imageAspect=0;image=https://raw.githubusercontent.com/BCPTe/SETM/main/images/05/pmos_simbolo.png;imageBorder=#2D7600;perimeterSpacing=0;" parent="1" vertex="1">
          <mxGeometry x="489" y="282" width="100" height="100" as="geometry" />
        </mxCell>
        <mxCell id="Byet9GKhUcZKY6ZSXrdh-11" style="edgeStyle=none;rounded=0;orthogonalLoop=1;jettySize=auto;html=1;entryX=0.5;entryY=0;entryDx=0;entryDy=0;fontSize=11;" edge="1" parent="1" source="DFONRw64RP-OTkSRBfMr-1" target="Byet9GKhUcZKY6ZSXrdh-6">
          <mxGeometry relative="1" as="geometry" />
        </mxCell>
        <mxCell id="DFONRw64RP-OTkSRBfMr-1" value="" style="shape=image;verticalLabelPosition=bottom;labelBackgroundColor=default;verticalAlign=top;aspect=fixed;imageAspect=0;image=https://raw.githubusercontent.com/BCPTe/SETM/main/images/05/nmos_simbolo.png;imageBorder=#2D7600;" parent="1" vertex="1">
          <mxGeometry x="249" y="282" width="100" height="100" as="geometry" />
        </mxCell>
        <mxCell id="Byet9GKhUcZKY6ZSXrdh-1" value="&lt;div&gt;sono transistori a 4 terminali:&lt;/div&gt;&lt;div&gt;- DRAIN&lt;/div&gt;&lt;div&gt;- SOURCE&lt;/div&gt;&lt;div&gt;- GATE&lt;/div&gt;&lt;div style=&quot;font-size: 11px;&quot;&gt;- BULK &lt;font style=&quot;font-size: 11px;&quot;&gt;(solitamente collegato ad una tensione costante o cortocircuitato con SOURCE)&lt;/font&gt;&lt;br&gt;&lt;/div&gt;" style="whiteSpace=wrap;html=1;align=left;fillColor=#f5f5f5;fontColor=#333333;strokeColor=#666666;" vertex="1" parent="1">
          <mxGeometry x="209" y="70" width="180" height="110" as="geometry" />
        </mxCell>
        <mxCell id="Byet9GKhUcZKY6ZSXrdh-14" value="" style="edgeStyle=none;rounded=0;orthogonalLoop=1;jettySize=auto;html=1;fontSize=11;" edge="1" parent="1" source="Byet9GKhUcZKY6ZSXrdh-6" target="Byet9GKhUcZKY6ZSXrdh-13">
          <mxGeometry relative="1" as="geometry" />
        </mxCell>
        <mxCell id="Byet9GKhUcZKY6ZSXrdh-17" value="" style="edgeStyle=none;rounded=0;orthogonalLoop=1;jettySize=auto;html=1;fontSize=11;" edge="1" parent="1" source="Byet9GKhUcZKY6ZSXrdh-6" target="Byet9GKhUcZKY6ZSXrdh-16">
          <mxGeometry relative="1" as="geometry" />
        </mxCell>
        <mxCell id="Byet9GKhUcZKY6ZSXrdh-18" value="&lt;font style=&quot;font-size: 9px;&quot;&gt;porta d&#39;ingresso (di controllo)&lt;br&gt;&lt;/font&gt;" style="edgeLabel;html=1;align=center;verticalAlign=middle;resizable=0;points=[];fontSize=10;" vertex="1" connectable="0" parent="Byet9GKhUcZKY6ZSXrdh-17">
          <mxGeometry x="0.2384" y="-1" relative="1" as="geometry">
            <mxPoint x="19" y="-1" as="offset" />
          </mxGeometry>
        </mxCell>
        <mxCell id="Byet9GKhUcZKY6ZSXrdh-22" value="" style="edgeStyle=none;rounded=0;orthogonalLoop=1;jettySize=auto;html=1;fontSize=9;" edge="1" parent="1" source="Byet9GKhUcZKY6ZSXrdh-6" target="Byet9GKhUcZKY6ZSXrdh-21">
          <mxGeometry relative="1" as="geometry" />
        </mxCell>
        <mxCell id="Byet9GKhUcZKY6ZSXrdh-23" value="porta d&#39;uscita (controllata)" style="edgeLabel;html=1;align=center;verticalAlign=middle;resizable=0;points=[];fontSize=9;" vertex="1" connectable="0" parent="Byet9GKhUcZKY6ZSXrdh-22">
          <mxGeometry x="-0.5313" y="-2" relative="1" as="geometry">
            <mxPoint x="40" y="-4" as="offset" />
          </mxGeometry>
        </mxCell>
        <mxCell id="Byet9GKhUcZKY6ZSXrdh-6" value="&lt;div align=&quot;left&quot;&gt;considerando il terminale SOURCE comune, si individuano 2 porte:&lt;/div&gt;&lt;div align=&quot;left&quot;&gt;- GATE-SOURCE (GS)&lt;/div&gt;&lt;div align=&quot;left&quot;&gt;- DRAIN-SOURCE (DS)&lt;br&gt;&lt;/div&gt;" style="whiteSpace=wrap;html=1;fontSize=11;align=left;fillColor=#f5f5f5;fontColor=#333333;strokeColor=#666666;" vertex="1" parent="1">
          <mxGeometry x="330" y="450" width="180" height="60" as="geometry" />
        </mxCell>
        <mxCell id="Byet9GKhUcZKY6ZSXrdh-13" value="&lt;div align=&quot;center&quot;&gt;il transistore MOS è quindi un doppio bipolo lineare&lt;/div&gt;" style="whiteSpace=wrap;html=1;fontSize=11;align=center;fillColor=#dae8fc;strokeColor=#6c8ebf;" vertex="1" parent="1">
          <mxGeometry x="340" y="550" width="160" height="50" as="geometry" />
        </mxCell>
        <mxCell id="Byet9GKhUcZKY6ZSXrdh-15" value="" style="shape=image;verticalLabelPosition=bottom;labelBackgroundColor=default;verticalAlign=top;aspect=fixed;imageAspect=0;image=https://raw.githubusercontent.com/BCPTe/SETM/main/images/05/mos_doppiobipolo.png;imageBorder=#6C8EBF;" vertex="1" parent="1">
          <mxGeometry x="340" y="602" width="160" height="71.6" as="geometry" />
        </mxCell>
        <mxCell id="Byet9GKhUcZKY6ZSXrdh-25" value="" style="edgeStyle=none;rounded=0;orthogonalLoop=1;jettySize=auto;html=1;fontSize=9;" edge="1" parent="1" source="Byet9GKhUcZKY6ZSXrdh-16" target="Byet9GKhUcZKY6ZSXrdh-24">
          <mxGeometry relative="1" as="geometry" />
        </mxCell>
        <mxCell id="Byet9GKhUcZKY6ZSXrdh-16" value="&lt;div align=&quot;center&quot;&gt;GS&lt;/div&gt;" style="whiteSpace=wrap;html=1;fontSize=11;align=center;fillColor=#d5e8d4;strokeColor=#82b366;" vertex="1" parent="1">
          <mxGeometry x="120" y="470" width="40" height="20" as="geometry" />
        </mxCell>
        <mxCell id="Byet9GKhUcZKY6ZSXrdh-27" value="" style="edgeStyle=none;rounded=0;orthogonalLoop=1;jettySize=auto;html=1;fontSize=9;" edge="1" parent="1" source="Byet9GKhUcZKY6ZSXrdh-21" target="Byet9GKhUcZKY6ZSXrdh-26">
          <mxGeometry relative="1" as="geometry" />
        </mxCell>
        <mxCell id="Byet9GKhUcZKY6ZSXrdh-21" value="&lt;div align=&quot;center&quot;&gt;DS&lt;/div&gt;" style="whiteSpace=wrap;html=1;fontSize=11;align=center;fillColor=#f8cecc;strokeColor=#b85450;" vertex="1" parent="1">
          <mxGeometry x="680" y="470" width="40" height="20" as="geometry" />
        </mxCell>
        <mxCell id="Byet9GKhUcZKY6ZSXrdh-24" value="&lt;div&gt;variabile indipendente&lt;/div&gt;&lt;div&gt;\(v_{GS}\)&lt;br&gt;&lt;/div&gt;" style="whiteSpace=wrap;html=1;fontSize=11;fillColor=#d5e8d4;strokeColor=#82b366;" vertex="1" parent="1">
          <mxGeometry x="80" y="540" width="120" height="40" as="geometry" />
        </mxCell>
        <mxCell id="Byet9GKhUcZKY6ZSXrdh-26" value="&lt;div&gt;variabile dipendente&lt;/div&gt;&lt;div&gt;\(i_D\)&lt;br&gt;&lt;/div&gt;" style="whiteSpace=wrap;html=1;fontSize=11;fillColor=#f8cecc;strokeColor=#b85450;" vertex="1" parent="1">
          <mxGeometry x="640" y="540" width="120" height="40" as="geometry" />
        </mxCell>
      </root>
    </mxGraphModel>
  </diagram>
</mxfile>
